OpenSim_Sub10_CSStiffKnee_RCS.mot
version=1
nRows=34
nColumns=11
inDegrees=no
endheader
time	Top_Thigh	Med_Thigh	Bot_Thigh	Top_Shank	2nd_Top_Shank	2nd_Bot_Shank	Bot_Shank	BNOx	BNOy	BNOZ
0	2020.17259640	1953.82387300	1792.89765699	1306.23788704	1517.41806102	1308.95635133	1306.31594630	0	0	0
0.01000000	2018.73180002	1954.07305667	1792.33569007	1306.71357511	1517.41478702	1308.10065677	1306.04627301	0	0	0
0.02000000	2017.56811671	1954.45559018	1791.79527115	1307.17986615	1517.48353846	1307.25796961	1305.79419724	0	0	0
0.03000000	2016.73126186	1954.98240577	1791.28928619	1307.63202888	1517.63845254	1306.43994255	1305.56389660	0	0	0
0.04000000	2016.27095083	1955.66443564	1790.83062116	1308.06533198	1517.89366643	1305.65822828	1305.35954873	0	0	0
0.05000000	2016.23689901	1956.51261201	1790.43216202	1308.47504415	1518.26331734	1304.92447951	1305.18533124	0	0	0
0.06000000	2016.67882177	1957.53786711	1790.10679474	1308.85643407	1518.76154245	1304.25034893	1305.04542176	0	0	0
0.07000000	2017.64285070	1958.74765443	1789.86706205	1309.20472997	1519.39946437	1303.64773762	1304.94364570	0	0	0
0.08000000	2019.12149338	1960.09737585	1789.72037114	1309.51455440	1520.14309876	1303.13226319	1304.87855818	0	0	0
0.09000000	2021.06597751	1961.50236376	1789.67017582	1309.78006365	1520.92373783	1302.72240424	1304.84465726	0	0	0
0.10000000	2023.42646895	1962.87691982	1789.71982821	1309.99540206	1521.67178058	1302.43671297	1304.83633663	0	0	0
0.11000000	2026.15313352	1964.13534570	1789.87268043	1310.15471393	1522.31762602	1302.29374156	1304.84798998	0	0	0
0.12000000	2029.19613708	1965.19194307	1790.13208459	1310.25214357	1522.79167316	1302.31204222	1304.87401101	0	0	0
0.13000000	2032.50564548	1965.96101358	1790.50139281	1310.28183531	1523.02432101	1302.51016713	1304.90879341	0	0	0
0.14000000	2036.03182454	1966.35685890	1790.98395721	1310.23793345	1522.94596857	1302.90666850	1304.94673087	0	0	0
0.15000000	2039.72484013	1966.29378071	1791.58312991	1310.11458231	1522.48701486	1303.52009852	1304.98221709	0	0	0
0.16000000	2043.53370166	1965.68928184	1792.30246553	1309.90655271	1521.58126218	1304.36743153	1305.00968756	0	0	0
0.17000000	2047.36246295	1964.58531068	1793.15339076	1309.63297113	1520.29481674	1305.40430245	1305.02520299	0	0	0
0.18000000	2051.05677885	1963.18547483	1794.15755842	1309.34460287	1518.86565212	1306.50666419	1305.02693528	0	0	0
0.19000000	2054.45840131	1961.70418583	1795.33730475	1309.09432772	1517.54322810	1307.54514437	1305.01319742	0	0	0
0.20000000	2057.41218451	1960.35102631	1796.71313184	1308.93360088	1516.57057566	1308.39356167	1304.98239263	0	0	0
0.21000000	2059.83433318	1959.22451419	1798.26335579	1308.88111172	1516.04286318	1308.99912969	1304.93499924	0	0	0
0.22000000	2061.71240265	1958.31210263	1799.92410681	1308.92278387	1515.90739648	1309.38245689	1304.87357066	0	0	0
0.23000000	2063.03705044	1957.59641590	1801.62968090	1309.04311631	1516.10505256	1309.56734285	1304.80075056	0	0	0
0.24000000	2063.79893409	1957.06007826	1803.31437408	1309.22660805	1516.57670844	1309.57758710	1304.71918258	0	0	0
0.25000000	2063.98871110	1956.68571399	1804.91248236	1309.45775809	1517.26324110	1309.43698923	1304.63151037	0	0	0
0.26000000	2063.59703901	1956.45594734	1806.35830175	1309.72106542	1518.10552757	1309.16934877	1304.54037759	0	0	0
0.27000000	2062.61457535	1956.35340260	1807.58612826	1310.00102906	1519.04444485	1308.79846530	1304.44842788	0	0	0
0.28000000	2061.03197763	1956.36070401	1808.53025791	1310.28214801	1520.02086993	1308.34813836	1304.35830489	0	0	0
0.29000000	2058.83990339	1956.46047586	1809.12498670	1310.54892126	1520.97567983	1307.84216752	1304.27265228	0	0	0
0.30000000	2056.02901015	1956.63534240	1809.30461066	1310.78584781	1521.84975156	1307.30435234	1304.19411370	0	0	0
0.31000000	2052.58995543	1956.86792791	1809.00342579	1310.97742667	1522.58396211	1306.75849238	1304.12533279	0	0	0
0.32000000	2048.51339676	1957.14085665	1808.15572811	1311.10815684	1523.11918849	1306.22838719	1304.06895321	0	0	0
0.33000000	2043.78999166	1957.43675288	1806.69581363	1311.16253732	1523.39630771	1305.73783633	1304.02761860	0	0	0
